<svg width="261" height="60" viewBox="0 0 261 60" fill="none" xmlns="http://www.w3.org/2000/svg">
<path d="M10 50C8.625 50 7.44792 49.5104 6.46875 48.5312C5.48958 47.5521 5 46.375 5 45V15C5 13.625 5.48958 12.4479 6.46875 11.4688C7.44792 10.4896 8.625 10 10 10H22.9375C23.6042 10 24.2396 10.125 24.8438 10.375C25.4479 10.625 25.9792 10.9792 26.4375 11.4375L30 15H50C51.375 15 52.5521 15.4896 53.5312 16.4688C54.5104 17.4479 55 18.625 55 20V45C55 46.375 54.5104 47.5521 53.5312 48.5312C52.5521 49.5104 51.375 50 50 50H10ZM10 45H50V20H27.9375L22.9375 15H10V45Z" fill="white"/>
<path d="M71.92 44V16H78.24V44H71.92ZM82.0363 44V16H88.3563L100.316 33.64V16H106.636V44H100.316L88.3563 26.44V44H82.0363ZM110.396 44V16H120.596C123.956 16 126.689 16.6133 128.796 17.84C130.929 19.04 132.489 20.6933 133.476 22.8C134.462 24.88 134.956 27.2667 134.956 29.96C134.956 33.0267 134.369 35.6133 133.196 37.72C132.049 39.8 130.396 41.3733 128.236 42.44C126.102 43.48 123.556 44 120.596 44H110.396ZM116.716 38.52H120.276C122.462 38.52 124.142 38.16 125.316 37.44C126.516 36.72 127.342 35.72 127.796 34.44C128.276 33.16 128.516 31.6667 128.516 29.96C128.516 26.9467 127.822 24.7733 126.436 23.44C125.076 22.08 123.022 21.4 120.276 21.4H116.716V38.52ZM137.935 44V16H156.335V21.44H144.255V26.52H154.455V31.96H144.255V38.56H156.335V44H137.935ZM158.415 44L167.295 28.64L159.815 16H166.975L171.055 22.88L174.855 16H181.975L174.615 28.64L183.735 44H176.575L170.895 34.4L165.495 44H158.415ZM186.138 44V16H192.458V38.52H203.898V44H186.138ZM207.076 44V16H213.396V44H207.076ZM227.193 44.48C225.219 44.48 223.419 44.16 221.793 43.52C220.193 42.8533 218.899 41.8667 217.913 40.56C216.953 39.2267 216.433 37.5467 216.353 35.52H222.993C223.099 36.4533 223.473 37.2933 224.113 38.04C224.779 38.7867 225.779 39.16 227.113 39.16C228.259 39.16 229.113 38.9067 229.673 38.4C230.259 37.8933 230.553 37.2267 230.553 36.4C230.553 36.0267 230.486 35.68 230.353 35.36C230.246 35.04 230.019 34.7333 229.673 34.44C229.326 34.12 228.793 33.8 228.073 33.48C227.379 33.16 226.446 32.8133 225.273 32.44C223.086 31.7467 221.379 30.9333 220.153 30C218.926 29.0667 218.059 28.0667 217.553 27C217.073 25.9333 216.833 24.84 216.833 23.72C216.859 21.9067 217.313 20.4 218.193 19.2C219.073 17.9733 220.246 17.0533 221.713 16.44C223.179 15.8267 224.819 15.52 226.633 15.52C228.446 15.52 230.099 15.84 231.593 16.48C233.113 17.0933 234.339 18.0133 235.273 19.24C236.206 20.4667 236.686 21.9867 236.713 23.8H229.913C229.886 23.08 229.579 22.4 228.993 21.76C228.406 21.12 227.539 20.8 226.393 20.8C225.566 20.8267 224.859 21.0667 224.273 21.52C223.713 21.9467 223.433 22.56 223.433 23.36C223.433 24.0533 223.726 24.6533 224.313 25.16C224.899 25.6667 225.726 26.1333 226.793 26.56C227.886 26.9867 229.153 27.44 230.593 27.92C231.686 28.2933 232.646 28.7333 233.473 29.24C234.326 29.72 235.033 30.2933 235.593 30.96C236.153 31.6 236.579 32.3333 236.873 33.16C237.166 33.9867 237.313 34.92 237.313 35.96C237.313 37.6667 236.873 39.16 235.993 40.44C235.139 41.72 233.953 42.72 232.433 43.44C230.913 44.1333 229.166 44.48 227.193 44.48ZM246.173 44V21.44H238.133V16H260.533V21.44H252.453V44H246.173Z" fill="white"/>
</svg>
