<svg width="20" height="20" viewBox="0 0 20 20" fill="none" xmlns="http://www.w3.org/2000/svg">
<path d="M9.08301 2.00034C12.9949 2.00034 16.1668 5.17148 16.167 9.08334C16.167 10.7988 15.5557 12.3714 14.541 13.597L17.3066 16.3617C17.567 16.622 17.567 17.0447 17.3066 17.305C17.0463 17.5653 16.6236 17.5654 16.3633 17.305L13.5986 14.5394C12.3727 15.5552 10.7995 16.1673 9.08301 16.1673C5.17114 16.1672 2 12.9953 2 9.08334C2.00018 5.17158 5.17125 2.00051 9.08301 2.00034ZM9.08301 3.33334C5.90763 3.33352 3.33318 5.90796 3.33301 9.08334C3.33301 12.2589 5.90752 14.8332 9.08301 14.8333C10.5993 14.8333 11.9775 14.2455 13.0049 13.2865C13.0356 13.2274 13.0735 13.171 13.123 13.1214C13.1726 13.0719 13.2291 13.0339 13.2881 13.0033C14.246 11.9761 14.833 10.5986 14.833 9.08334C14.8328 5.90786 12.2585 3.33334 9.08301 3.33334Z" fill="white"/>
</svg>
